# xmcd
#
# Track frame offsets: 
#        150
#        11895
#        23373
#        34892
#        45768
#        59030
#        71446
#        84423
#        98623
#        110696
#        122211
#        134285
#
# Disc length: 1933 seconds
#
# Revision: 2
# Processed by: cddbd v1.5.2PL0 Copyright (c) Steve Scherf et al.
# Submitted via: ExactAudioCopyFreeDBPlugin 1.0
#
DISCID=97078b0c
DTITLE=Sam and Dave - Sam and Dave:  Collectables Classics [box set]
DYEAR=2006
DGENRE=Soul
TTITLE0=Hold On, I'm Comin'
TTITLE1=If You Got the Loving
TTITLE2=I Take What I Want
TTITLE3=Ease Me
TTITLE4=I Got Everything I Need
TTITLE5=Don't Make it So Hard on Me
TTITLE6=It's a Wonder
TTITLE7=Don't Help Me Out
TTITLE8=Just Me
TTITLE9=You Got it Made
TTITLE10=You Don't Know Like I Know
TTITLE11=Blame Me (Don't Blame My Heart)
EXTD=
EXTT0=
EXTT1=
EXTT2=
EXTT3=
EXTT4=
EXTT5=
EXTT6=
EXTT7=
EXTT8=
EXTT9=
EXTT10=
EXTT11=
PLAYORDER=
